# xmcd CD database file
# Copyright (C) 1995-1998 Ti Kan
#
# Track frame offsets:
#	150
#	8990
#	25081
#	36754
#	49948
#	61437
#	71273
#	84988
#	96773
#	110933
#	126105
#	139645
#	149821
#	159952
#	169968
#	180338
#	189950
#	200507
#	212698
#	224842
#	234956
#	244882
#	259112
#	269768
#	279404
#	288285
#	300965
#	309247
#	320297
#	331529
#	341586
#
# Disc length: 4687 seconds
#
# Revision: 3
# Processed by: cddbd v1.4PL0 Copyright (c) Steve Scherf et al.
# Submitted via: CDex 1.30Release
#
DISCID=c3124d1f
DTITLE=Varius - COUNTRY Legends 1
DYEAR=1900
DGENRE=Country
TTITLE0=Bob Luman - Let's Think About Living
TTITLE1=Johnny Lee  - Lookin' For Love
TTITLE2=Moe Bandy - Oklahoma Hills
TTITLE3=Jim Ed Brown - You Can Have Her
TTITLE4=Ray Price - My Shoes Keep Walking Back To You
TTITLE5=Tommy Collins - It Tickles
TTITLE6=Lee Greenwood - Hearts Aren't Made To Break
TTITLE7=Roger Miller - Walking In The Sunshine
TTITLE8=Lacy J. Dalton - 16th Avenue
TTITLE9=Lee Greenwood - Dixie Road
TTITLE10=Bill Anderson - Before I Met You
TTITLE11=Jack Reno - Hitchin' A Ride
TTITLE12=Glen Campbell - Gentle On My Mind
TTITLE13=Bob Luman - When You Say Love
TTITLE14=Johnny Russell - Jambalaya
TTITLE15=Wynn Stewart - Love's Gonna Happen To Me
TTITLE16=Barbara Fairchild - Kid Stuff
TTITLE17=Anderson, Lynn - How Can I Unlove You
TTITLE18=Barbara Fairchild - Colour My World
TTITLE19=Susan Raye - Pitty Pitty Patter
TTITLE20=Merle Haggard - Mama Tried
TTITLE21=George Jones - A Good Year For The Roses
TTITLE22=Faron Young - If You Ain't Lovin'
TTITLE23=The Louvin Brothers - I Don't Believe You've Met My Baby
TTITLE24=Tommy Collins - If You Can't Bite Don't Growl
TTITLE25=Hank Thompson - I Recall A Gypsy Woman
TTITLE26=Don Gibson - Blue Blue Day
TTITLE27=George Jones - Tender Years
TTITLE28=Stonewall Jackson - Waterloo
TTITLE29=Don Gibson - Lonesome Number One
TTITLE30=Skeeter Davis - I Can't Stay Mad At You
EXTD=ID3G:   2
EXTT0=
EXTT1=
EXTT2=
EXTT3=
EXTT4=
EXTT5=
EXTT6=
EXTT7=
EXTT8=
EXTT9=
EXTT10=
EXTT11=
EXTT12=
EXTT13=
EXTT14=
EXTT15=
EXTT16=
EXTT17=
EXTT18=
EXTT19=
EXTT20=
EXTT21=
EXTT22=
EXTT23=
EXTT24=
EXTT25=
EXTT26=
EXTT27=
EXTT28=
EXTT29=
EXTT30=
PLAYORDER=
